<svg width="244" height="108" viewBox="0 0 244 108" fill="none" xmlns="http://www.w3.org/2000/svg">
<path d="M225.707 64.6833C223.015 64.6833 220.522 64.242 218.227 63.3594C215.932 62.4768 213.946 61.2411 212.269 59.6524C210.637 58.1078 209.445 56.2764 208.695 54.1581L216.771 51.1131C217.3 52.7901 218.337 54.1361 219.882 55.1511C221.471 56.2102 223.412 56.7398 225.707 56.7398C227.472 56.7398 229.017 56.4088 230.341 55.7468C231.709 55.0849 232.768 54.114 233.518 52.8342C234.268 51.5986 234.644 50.0981 234.644 48.3329V40.1246L236.298 42.1105C235.063 44.2729 233.408 45.9057 231.334 47.009C229.26 48.1123 226.899 48.6639 224.251 48.6639C220.897 48.6639 217.896 47.8916 215.248 46.347C212.6 44.8025 210.526 42.6842 209.026 39.9922C207.525 37.3003 206.775 34.2773 206.775 30.9234C206.775 27.5254 207.525 24.5024 209.026 21.8546C210.526 19.2067 212.578 17.1326 215.182 15.6322C217.786 14.0876 220.742 13.3153 224.052 13.3153C226.744 13.3153 229.105 13.889 231.135 15.0364C233.209 16.1397 234.93 17.7504 236.298 19.8687L235.107 22.0532V14.1097H243.315V48.3329C243.315 51.4662 242.543 54.2685 240.998 56.7398C239.498 59.2111 237.424 61.1528 234.776 62.565C232.172 63.9772 229.149 64.6833 225.707 64.6833ZM225.31 40.6542C227.163 40.6542 228.774 40.257 230.142 39.4627C231.554 38.6242 232.658 37.4768 233.452 36.0205C234.246 34.5642 234.644 32.8872 234.644 30.9896C234.644 29.1361 234.224 27.4812 233.386 26.0249C232.592 24.5245 231.488 23.355 230.076 22.5165C228.708 21.6781 227.119 21.2588 225.31 21.2588C223.501 21.2588 221.868 21.6781 220.411 22.5165C218.955 23.355 217.808 24.5245 216.969 26.0249C216.175 27.4812 215.778 29.1361 215.778 30.9896C215.778 32.8431 216.175 34.498 216.969 35.9543C217.808 37.4106 218.933 38.558 220.345 39.3965C221.802 40.235 223.457 40.6542 225.31 40.6542Z" fill="white"/>
<path d="M168.951 50.1202V14.1097H177.093V21.1926L176.431 19.9349C177.27 17.7725 178.638 16.1397 180.535 15.0364C182.477 13.889 184.728 13.3153 187.287 13.3153C189.935 13.3153 192.274 13.889 194.304 15.0364C196.378 16.1838 197.989 17.7946 199.136 19.8687C200.284 21.8987 200.857 24.2597 200.857 26.9516V50.1202H192.186V29.0037C192.186 27.415 191.877 26.047 191.259 24.8996C190.641 23.7522 189.781 22.8696 188.677 22.2517C187.618 21.5898 186.361 21.2588 184.904 21.2588C183.492 21.2588 182.234 21.5898 181.131 22.2517C180.028 22.8696 179.167 23.7522 178.549 24.8996C177.932 26.047 177.623 27.415 177.623 29.0037V50.1202H168.951Z" fill="white"/>
<path d="M153.78 50.1203V14.1098H162.451V50.1203H153.78ZM153.78 10.0719V0.804443H162.451V10.0719H153.78Z" fill="white"/>
<path d="M115.366 50.1202V14.1097H123.508V21.1926L122.847 19.9349C123.685 17.7725 125.053 16.1397 126.951 15.0364C128.892 13.889 131.143 13.3153 133.703 13.3153C136.35 13.3153 138.689 13.889 140.719 15.0364C142.794 16.1838 144.404 17.7946 145.552 19.8687C146.699 21.8987 147.273 24.2597 147.273 26.9516V50.1202H138.601V29.0037C138.601 27.415 138.292 26.047 137.674 24.8996C137.057 23.7522 136.196 22.8696 135.093 22.2517C134.034 21.5898 132.776 21.2588 131.32 21.2588C129.907 21.2588 128.65 21.5898 127.546 22.2517C126.443 22.8696 125.583 23.7522 124.965 24.8996C124.347 26.047 124.038 27.415 124.038 29.0037V50.1202H115.366Z" fill="white"/>
<path d="M89.6553 50.12V14.1095H97.7974V22.1192L97.1354 20.9276C97.9739 18.2357 99.2757 16.3601 101.041 15.301C102.85 14.2418 105.013 13.7123 107.528 13.7123H109.646V21.391H106.535C104.064 21.391 102.078 22.1633 100.578 23.7079C99.0771 25.2083 98.3269 27.3266 98.3269 30.0627V50.12H89.6553Z" fill="white"/>
<path d="M19.7792 50.9147C17.1755 50.9147 14.7704 50.4072 12.5638 49.3922C10.4014 48.3331 8.68035 46.8327 7.40056 44.8909L8.26111 43.1698V50.1204H0.119019V0.0101318H8.79067V21.259L7.46676 19.4717C8.70241 17.53 10.3794 16.0295 12.4976 14.9704C14.6159 13.8671 17.0652 13.3155 19.8454 13.3155C23.2434 13.3155 26.3105 14.154 29.0466 15.8309C31.7827 17.5079 33.9451 19.7586 35.5338 22.5829C37.1666 25.4073 37.983 28.5847 37.983 32.1151C37.983 35.6014 37.1887 38.7788 35.6 41.6473C34.0113 44.5158 31.8489 46.7885 29.1128 48.4655C26.3767 50.0983 23.2655 50.9147 19.7792 50.9147ZM18.7862 42.9712C20.7721 42.9712 22.5373 42.5079 24.0819 41.5811C25.6265 40.6544 26.818 39.3746 27.6565 37.7418C28.5391 36.1089 28.9804 34.2334 28.9804 32.1151C28.9804 29.9968 28.5391 28.1434 27.6565 26.5547C26.818 24.9218 25.6265 23.642 24.0819 22.7153C22.5373 21.7444 20.7721 21.259 18.7862 21.259C16.8886 21.259 15.1675 21.7224 13.623 22.6491C12.1225 23.5758 10.931 24.8777 10.0484 26.5547C9.20991 28.1875 8.79067 30.041 8.79067 32.1151C8.79067 34.2334 9.20991 36.1089 10.0484 37.7418C10.931 39.3746 12.1225 40.6544 13.623 41.5811C15.1675 42.5079 16.8886 42.9712 18.7862 42.9712Z" fill="white"/>
<rect x="44.0994" y="13.7795" width="9.8619" height="27.0189" fill="white"/>
<rect x="53.9612" y="40.2581" width="9.8619" height="9.8619" fill="white"/>
<rect x="63.8232" y="13.7795" width="9.8619" height="27.0189" fill="white"/>
<rect x="73.6851" y="40.2581" width="9.8619" height="9.8619" fill="white"/>
<path d="M124.564 107.815C120.724 107.815 117.37 106.91 114.502 105.101C111.677 103.248 109.736 100.754 108.677 97.6209L115.164 94.5097C116.09 96.5397 117.37 98.1284 119.003 99.2758C120.68 100.423 122.533 100.997 124.564 100.997C126.152 100.997 127.41 100.644 128.337 99.9378C129.263 99.2317 129.727 98.3049 129.727 97.1575C129.727 96.4514 129.528 95.8777 129.131 95.4364C128.778 94.951 128.27 94.5538 127.609 94.2449C126.991 93.8919 126.307 93.605 125.556 93.3844L119.665 91.7295C116.62 90.8469 114.303 89.5009 112.714 87.6915C111.17 85.8822 110.398 83.7418 110.398 81.2705C110.398 79.064 110.949 77.1443 112.052 75.5115C113.2 73.8345 114.767 72.5327 116.752 71.6059C118.782 70.6792 121.099 70.2158 123.703 70.2158C127.101 70.2158 130.102 71.0322 132.706 72.6651C135.309 74.2979 137.163 76.5927 138.266 79.5494L131.646 82.6606C131.029 81.0278 129.992 79.726 128.535 78.7551C127.079 77.7842 125.446 77.2988 123.637 77.2988C122.18 77.2988 121.033 77.6298 120.195 78.2917C119.356 78.9537 118.937 79.8142 118.937 80.8734C118.937 81.5353 119.113 82.109 119.466 82.5944C119.819 83.0799 120.305 83.4771 120.923 83.786C121.585 84.0949 122.335 84.3817 123.173 84.6465L128.932 86.3676C131.889 87.2502 134.162 88.5741 135.751 90.3394C137.383 92.1046 138.2 94.267 138.2 96.8266C138.2 98.989 137.626 100.909 136.479 102.586C135.331 104.218 133.743 105.498 131.713 106.425C129.683 107.352 127.3 107.815 124.564 107.815Z" fill="white"/>
<path d="M85.6739 107.815C82.1435 107.815 78.9219 106.999 76.0093 105.366C73.1408 103.733 70.846 101.504 69.1249 98.68C67.448 95.8557 66.6095 92.6341 66.6095 89.0154C66.6095 85.3967 67.448 82.1752 69.1249 79.3509C70.846 76.5265 73.1408 74.2979 76.0093 72.6651C78.8778 71.0322 82.0993 70.2158 85.6739 70.2158C89.2044 70.2158 92.4038 71.0322 95.2723 72.6651C98.1408 74.2979 100.414 76.5265 102.09 79.3509C103.812 82.1311 104.672 85.3526 104.672 89.0154C104.672 92.6341 103.812 95.8557 102.09 98.68C100.369 101.504 98.0746 103.733 95.2061 105.366C92.3376 106.999 89.1602 107.815 85.6739 107.815ZM85.6739 99.8716C87.6157 99.8716 89.3147 99.4082 90.771 98.4814C92.2714 97.5547 93.4409 96.2749 94.2794 94.6421C95.162 92.9651 95.6033 91.0896 95.6033 89.0154C95.6033 86.8972 95.162 85.0437 94.2794 83.455C93.4409 81.8222 92.2714 80.5424 90.771 79.6156C89.3147 78.6448 87.6157 78.1593 85.6739 78.1593C83.688 78.1593 81.9449 78.6448 80.4444 79.6156C78.944 80.5424 77.7525 81.8222 76.8698 83.455C76.0314 85.0437 75.6121 86.8972 75.6121 89.0154C75.6121 91.0896 76.0314 92.9651 76.8698 94.6421C77.7525 96.2749 78.944 97.5547 80.4444 98.4814C81.9449 99.4082 83.688 99.8716 85.6739 99.8716Z" fill="white"/>
<path d="M43.9699 107.021V71.01H52.112V79.0197L51.45 77.8281C52.2885 75.1362 53.5904 73.2606 55.3556 72.2015C57.1649 71.1424 59.3273 70.6128 61.8428 70.6128H63.9611V78.2915H60.8499C58.3785 78.2915 56.3927 79.0638 54.8922 80.6084C53.3918 82.1088 52.6415 84.2271 52.6415 86.9632V107.021H43.9699Z" fill="white"/>
<path d="M19.6602 107.815C17.0565 107.815 14.6513 107.308 12.4448 106.293C10.2824 105.234 8.56133 103.733 7.28155 101.791L8.14208 100.07V107.021H0V56.9106H8.67167V78.1595L7.34774 76.3722C8.5834 74.4305 10.2604 72.93 12.3786 71.8709C14.4969 70.7676 16.9461 70.216 19.7264 70.216C23.1244 70.216 26.1915 71.0545 28.9276 72.7315C31.6637 74.4084 33.8261 76.6591 35.4148 79.4834C37.0476 82.3078 37.864 85.4852 37.864 89.0156C37.864 92.5019 37.0697 95.6793 35.481 98.5478C33.8923 101.416 31.7299 103.689 28.9938 105.366C26.2577 106.999 23.1465 107.815 19.6602 107.815ZM18.6672 99.8717C20.6531 99.8717 22.4183 99.4084 23.9629 98.4816C25.5075 97.5549 26.699 96.2751 27.5375 94.6423C28.4201 93.0094 28.8614 91.1339 28.8614 89.0156C28.8614 86.8974 28.4201 85.0439 27.5375 83.4552C26.699 81.8223 25.5075 80.5426 23.9629 79.6158C22.4183 78.6449 20.6531 78.1595 18.6672 78.1595C16.7696 78.1595 15.0485 78.6229 13.504 79.5496C12.0035 80.4764 10.812 81.7782 9.92938 83.4552C9.0909 85.088 8.67167 86.9415 8.67167 89.0156C8.67167 91.1339 9.0909 93.0094 9.92938 94.6423C10.812 96.2751 12.0035 97.5549 13.504 98.4816C15.0485 99.4084 16.7696 99.8717 18.6672 99.8717Z" fill="white"/>
<path d="M143.974 97.9813H153.157V107.164H143.974V97.9813Z" fill="white"/>
</svg>
